<?xml version="1.0" encoding="utf-8"?>
<!-- Generator: Adobe Illustrator 23.0.2, SVG Export Plug-In . SVG Version: 6.00 Build 0)  -->
<svg version="1.1" xmlns="http://www.w3.org/2000/svg" xmlns:xlink="http://www.w3.org/1999/xlink" x="0px" y="0px"
	 viewBox="0 0 223.7 250.9" style="enable-background:new 0 0 223.7 250.9;" xml:space="preserve">
<style type="text/css">
	.st0{fill:#CCCCCC;}
	.st1{fill:#FFFFFF;}
	.st2{opacity:0.4;fill:#3B8FC4;}
	.st3{display:none;}
</style>
<g id="Layer_4">
	<polygon class="st0" points="217.1,186.5 217.1,64.9 111.7,4 6.4,64.9 6.4,186.5 111.7,247.3 	"/>
</g>
<g id="Layer_2_1_">
	<title>Artboard 1</title>
	<path class="st1" d="M128.8,193.1c-1.9-1.4-3.9-3-5.8-4.6c-12.9-11.1-26.6-28.4-37.7-47.6l0,0C74.2,121.8,66.3,102,63,85.3
		c-0.5-2.7-0.9-5.3-1.2-7.8c-2.9,3-5.5,6.2-7.8,9.7c3.5,17.7,11.7,38.5,23.3,58.4l0,0c11.6,20.1,25.5,37.6,39.2,49.5
		C120.7,194.8,124.8,194.1,128.8,193.1z"/>
	<path class="st1" d="M169.7,87.2c-2.3-3.5-5-6.8-7.9-9.8c-0.3,3.1-0.8,6.5-1.6,10.2c-3.2,15.6-11,34.5-21.9,53.4
		c-11.6,20.1-24,36.3-35.9,46.6c-2.4,2.1-4.7,4-7.1,5.6c4.1,1,8.3,1.6,12.6,1.8c0.2-0.2,0.4-0.4,0.6-0.5c12.6-11,25.7-28,37.8-49
		c11.4-19.7,19.5-39.7,22.9-56.2C169.4,88.7,169.5,88,169.7,87.2z"/>
	<path class="st1" d="M49.5,94.9c-1.8,3.7-3.3,7.6-4.5,11.6c2.1-0.9,4.4-1.8,6.7-2.6c16-5.6,37.9-8.8,60.1-8.8
		c22.1,0,43.1,3.1,59.3,8.6c2.7,0.9,5.2,1.9,7.6,3c-1.1-4-2.7-7.9-4.5-11.7c0,0-0.1,0-0.1,0c-17.1-5.9-39.2-9.1-62.3-9.1
		C88.7,85.9,66.6,89.1,49.5,94.9z"/>
	<circle class="st2" cx="110.8" cy="125.7" r="60.9"/>
	<path d="M100.7,81.5c-3.5,0.2-3-3.6-3.2-4.9c0,0,1.3-0.9,2.1-1.2c0.7-0.3,3.2-0.3,3.6,1.2C103.7,78.1,104.1,81.3,100.7,81.5
		L100.7,81.5z M109.2,89.1c2.1-1.5,4.4,0.1,6.1,0c1.7-0.1,2-2.2,2.8-3.4c0.7-1.1,4-2.6,2.4-4.2c-1.6-1.6-9.3-2.7-11.2-0.2
		c-1,1.3-4.1,4.9-5.7,5.6s-0.7,3.6,0.3,3.8C104.9,90.9,107.1,90.6,109.2,89.1L109.2,89.1z M118.5,98.3c-0.6,0.7,0.3,2.1,2.1,2.1
		c0,1.4,0.4,3.6,2.2,3.2s2.1-3.2-0.3-4.7C121.6,98.2,120.4,95.1,118.5,98.3z M175,125.7c0,35.4-28.7,64.2-64.2,64.2
		s-64.2-28.7-64.2-64.2c0-35.4,28.7-64.2,64.2-64.2S175,90.2,175,125.7z M110.8,179.6c5.5,0,10.8-0.8,15.8-2.4
		c-0.1-0.5-0.3-0.9-0.6-1.3c-1.5-2.7-2.2-8.2-0.7-9.6c1.5-1.4,2.1-5,1-6c-1.1-0.9,0.8-2.5,0.9-3.5c1-3.8-1-4-4.2-5
		c-3.2-0.9-6.4,0.4-10.5,0.5c-4.1,0.1-5.8-5.8-6.3-6.8c-1.5-0.9-3.5-2.3-3.3-4.4c0.3-2.1,2.1-3.8,2.2-4.2c-0.4-1.2,0-3.5,0.6-4.2
		c0.9-3.6,5.5-5.9,7-6.5c0.6-2.4,5.3-4.8,6.4-4.3c1.1,0.5,2.2,2.2,3.9,0c1.8-2.2,2.9-1.6,5.6-1.6c2.7,0,3.5,1.3,4.4,3.8
		c0.8,2.5,6.7,2.9,6.8,2.3c1.2-4,4.6-0.9,5.2-0.9c3.9-0.3,4.4-2,3.9-4.3c-0.5-2.3-4.4-1.1-4.9-2.1c-0.4-0.8-1.2-2.6-1.7-1.7
		c-0.5,0.9-2,2.9-3.1,0.3c-1-2.6-3.9-5.6-4.7-5.1c-1.1,1.6-2.5,1.6-3.2,1.1c-2.6-2-4.6,0.1-5.7,1.2c-1.1,1.1-2.8,3-5.2,3.6
		c-2.4,0.6-4-1-4.3-3.5c-0.3-2.4,1.9-4.5,4-3.4c2.2,1.1,4,0.2,3.1-0.7c-0.9-0.9-1.6-3.6-0.4-4c1.2-0.5,2.1,0,4.1-2.8
		c2.1-2.8,4.4-1.9,7.1-1.4c2.7,0.5,2-4,1.8-4.9c-0.2-0.8-3.5-2.7-3.7-2.1c-0.3,0.7,0.5,3.6-1.1,4.4c-1.6,0.8-3.2-1.8-4.5-3.3
		c-1.3-1.5,1.2-2.9,1.5-3.6c0.7-2.7,3.8-5,6.7-3.5c2.9,1.5,3.5,0.4,3.3-0.1c-1.5-1.8-1.5-5,0-6.5c0.9-1,1.8-1.6,2.6-2
		c-8.9-6.1-19.5-9.4-30.3-9.3c-11.4,0-21.9,3.5-30.6,9.6c2.8-1.2,9.1-1.8,9.2-0.5c0.2,1.5,0.2,5.4,1.5,4.7c1.1-0.6,2.4-3.7,5.4-1.5
		c3,2.2-0.6,5-1.5,6.5c-0.9,1.5-1.3,3.9-4.5,2.8c-3.2-1.1-3.7,0.4-3.9,1.5s-2.2,2.1-4.9,1.3c-2.6-0.7-6.9,3.4-9,5.4
		c-1.1,1.1-10,3.9-8.7-2c0.1-0.3,0.2-0.6,0.2-0.9c-3.5,6-5.8,12.6-6.7,19.5c2.5,0.8,7.7,2.2,8.6,6.2c1.1,1.7,3.4,6.9,5.6,9.7
		c3.6,4.5,1.1,6.7,1.5,10.3c1.9,0.9,4.7,3,7.5,4.5c2.8,1.5,4.9,5.4,0.6,6.9c-0.9,0.7,0.2,4.3-1.7,5c-1.5,0.6-3.7,3.2-5.6,4.1
		C83.6,174,96.6,179.6,110.8,179.6L110.8,179.6z M164.7,125.7c0-0.8-0.1-1.6-0.1-2.4c-1.4-0.1-2.8-0.3-4.1-0.6
		c-1.8-0.5-3.1,1.4-2.2,2.1c0.8,0.6,2.8,1.4,3,2.6c0.2,1.2-1.9,6.7-3,8.8c-1.1,2.1-2.4,2.2-3.1,1.3c-0.6-0.9-1.9-5.5-3.3-8.1
		c-1.4-2.6-1.6-0.6-1.1,1.1c0.5,1.7,2.6,8.1,3.3,10c2.7,0.6,3.1,0.8,3.9,1.7c0.8,0.8-0.2,2-1.7,4.1c-1.5,2.2-6.8,12-7.1,13.7
		c-0.1,0.9,0,2.2-0.1,3.6C159.1,153.5,164.7,139.9,164.7,125.7z"/>
	<g>
		<path class="st1" d="M169.7,162.9c-3.3-16.4-11.4-36.2-23.5-57.2C134.7,86,121.5,69,108.9,57.8c-0.5-0.5-1.1-0.9-1.6-1.4
			c-4.3,0.3-8.4,0.9-12.4,1.9c2.5,1.8,5.2,3.9,7.9,6.4c11.9,10.6,24.4,26.7,35.4,45.6c11.6,20.1,19.4,38.9,22.5,54.4
			c0.6,3.2,1.1,6.2,1.4,9.2c2.9-3,5.6-6.4,7.9-9.9C169.8,163.6,169.7,163.2,169.7,162.9z"/>
		<path class="st1" d="M162,173.8c0.6,6,0.4,11.4-0.4,16.1c-1.1,5.9-3.2,10-6.1,11.6c-2.7,1.6-7,1.4-12.3-0.4
			c-4.5-1.6-9.4-4.3-14.4-8c-4,1-8.1,1.7-12.3,1.9c0.2,0.1,0.3,0.3,0.5,0.4c7.9,6.8,16,11.8,23.2,14.3c3.8,1.3,7.4,2,10.7,2
			c3.5,0,6.6-0.8,9.3-2.3c5.3-3.1,8.9-9.3,10.5-17.9c1.5-7.8,1.2-17.4-0.7-27.7C167.5,167.5,164.9,170.8,162,173.8z"/>
		<path class="st1" d="M54,87.2c2.3-3.5,4.9-6.7,7.8-9.7c-0.7-6.2-0.7-11.9,0.2-16.6c1-5.6,3-9.6,5.6-11.1
			c4.5-2.6,14.5-0.7,27.3,8.5c4-1,8.2-1.7,12.4-1.9c-7.9-6.8-15.9-11.8-23.2-14.5c-8.5-3.2-15.8-3.2-21.1-0.1
			c-5.2,3-8.7,9-10.1,17.5c-1.3,7.7-1,17.3,1.1,27.7C53.9,87.1,53.9,87.1,54,87.2z"/>
	</g>
	<g>
		<path class="st1" d="M61.9,174.1c0.3-2.3,0.6-4.7,1.1-7.2c3.2-16.7,11.3-37.3,22.4-56.4l0,0c11-19.1,24.2-35.8,37.1-47
			c2.1-1.9,4.3-3.5,6.3-5.1c-4-1-8.1-1.7-12.3-1.9c0,0-0.1,0-0.1,0.1c-13.7,11.9-27.5,29.4-39,49.4c-11.6,20.1-19.8,40.8-23.3,58.6
			C56.4,167.9,59,171.1,61.9,174.1z"/>
		<path class="st1" d="M128.8,58.3c5-3.6,9.8-6.4,14.2-8c3-1.1,5.7-1.7,8-1.7c1.8,0,3.3,0.3,4.4,1c4.5,2.6,7.8,12.2,6.3,27.7
			c2.9,3,5.6,6.3,7.9,9.8c1.9-10.2,2.2-19.5,0.9-27.2c-1.5-8.9-5.1-15.3-10.5-18.4c-5.2-3-12.2-3-20.2,0
			c-7.3,2.7-15.4,7.8-23.4,14.7C120.7,56.7,124.9,57.3,128.8,58.3z"/>
		<path class="st1" d="M95.4,193.3c-4.9,3.5-9.8,6.2-14.3,7.8c-5.6,2-10.3,2.2-13.1,0.5c-2.7-1.6-4.7-5.4-5.7-10.8
			c-0.9-4.7-1-10.4-0.3-16.6c-2.9-3-5.5-6.2-7.8-9.7c0,0.2-0.1,0.5-0.1,0.7c-2,10.3-2.2,19.7-0.8,27.3c1.5,8.2,5.1,14.2,10.2,17.1
			c2.7,1.6,5.9,2.3,9.4,2.3c3.4,0,7.3-0.7,11.4-2.2c7.6-2.7,15.8-7.7,23.8-14.6C103.6,194.9,99.4,194.3,95.4,193.3z"/>
	</g>
	<g>
		<path class="st1" d="M45,145.1c-5.5-2.5-10.3-5.4-13.9-8.5c-4.5-3.9-7-7.8-7-11.1c0-3.1,2.3-6.8,6.5-10.4c3.7-3.1,8.5-6,14.3-8.6
			c1.2-4,2.7-7.9,4.5-11.6c-0.3,0.1-0.5,0.2-0.8,0.3c-9.9,3.4-18.2,7.9-24,12.9c-6.4,5.5-9.7,11.5-9.7,17.4
			c0,6.1,3.5,12.4,10.3,18.1c6.1,5.2,14.6,9.8,24.5,13.3C47.8,153.2,46.2,149.2,45,145.1z"/>
		<path class="st1" d="M198.6,108c-6-5-14.4-9.5-24.4-12.9c1.8,3.7,3.3,7.6,4.5,11.7c5.6,2.5,10.4,5.3,14,8.3
			c4.4,3.6,6.8,7.4,6.8,10.5c0,3.3-2.6,7.3-7.3,11.1c-3.6,2.9-8.2,5.7-13.5,8.1c-1.2,4.1-2.7,8-4.5,11.7c9.7-3.4,18-7.8,23.9-12.7
			c7-5.7,10.7-12.1,10.7-18.2C208.7,119.5,205.2,113.5,198.6,108z"/>
		<path class="st1" d="M169,148.5c-15.1,5-35.4,7.8-57.2,7.8c-22.9,0-43.6-2.8-58.3-7.8c-3-1-5.8-2.1-8.4-3.3
			c1.2,4.1,2.7,8,4.6,11.8c0.3,0.1,0.5,0.2,0.8,0.3c15.9,5.4,37.1,8.3,61.3,8.3c22.7,0,44.1-2.9,60.1-8.2c0.8-0.3,1.5-0.5,2.3-0.8
			c1.8-3.7,3.4-7.7,4.5-11.7C175.7,146.1,172.4,147.4,169,148.5z"/>
	</g>
</g>
<g id="Layer_3" class="st3">
</g>
</svg>
