<?xml version="1.0" encoding="utf-8"?>
<!-- Generator: Adobe Illustrator 22.1.0, SVG Export Plug-In . SVG Version: 6.00 Build 0)  -->
<svg version="1.1" id="Layer_2_1_" xmlns="http://www.w3.org/2000/svg" xmlns:xlink="http://www.w3.org/1999/xlink" x="0px" y="0px"
	 viewBox="0 0 1001.1 890.7" style="enable-background:new 0 0 1001.1 890.7;" xml:space="preserve">
<style type="text/css">
	.st0{fill:#FFFFFF;}
	.st1{opacity:0.4;}
	.st2{display:none;fill:#00D8FF;}
	.st3{display:none;fill:none;stroke:#00D8FF;stroke-width:24;stroke-miterlimit:10;}
	.st4{display:none;}
</style>
<title>Artboard 1</title>
<path class="st0" d="M188.1,320.9c85.9-30,198.3-46.5,316.5-46.5c116,0,226.9,16.2,312.3,45.6c10.8,3.7,21.2,7.7,31.2,11.8
	c-3.4-10.3-7.3-20.5-11.7-30.3c-3.9-1.4-7.8-2.8-11.7-4.2c-87.8-30.3-201.5-46.9-320.1-46.9c-120.9,0-236.1,17-324.4,47.8
	c-1.9,0.6-3.7,1.3-5.5,2c-4.4,9.8-8.3,19.9-11.8,30.2C171,327.1,179.4,323.9,188.1,320.9z"/>
<path class="st0" d="M673.5,542.8C732,441.4,773.8,338.9,791.2,254.3c1.6-7.9,3.1-15.7,4.3-23.4c-6.5-8.8-13.4-17.2-20.6-25.3
	c-1.7,14.1-4.1,28.8-7.2,43.8c-16.9,82.1-57.8,182.1-115,281.4c-61,105.8-126.4,190.7-189.2,245.6c-9.7,8.5-19.5,16.4-29.2,23.7
	c10.7,2.1,21.5,3.8,32.5,4.9c4.2-3.4,8.4-7,12.5-10.6C544,737.9,611.1,650.9,673.5,542.8z"/>
<path class="st0" d="M555.4,781.7c-68-58.5-140.4-149.9-198.8-250.7l0,0c-58.1-100.5-99.7-204.6-117-293.1
	c-2.1-10.6-3.8-21.1-5.2-31.2c0,0,0,0,0,0c-7.2,8.1-13.9,16.5-20.4,25.2c0,0,0,0,0,0c0.6,3.5,1.3,7.1,2,10.6
	c17.8,91.1,60.4,197.8,119.8,300.5l0,0c60.5,104.5,132.9,195.8,203.9,256.9c2,1.7,3.9,3.3,5.9,5c10.8-1.2,21.5-2.9,32.1-5
	C570.2,794.2,562.8,788.1,555.4,781.7z"/>
<circle class="st1" cx="505.2" cy="445.8" r="340"/>
<path d="M448.3,197.1c-19.5,1-16.8-20.5-17.9-27.4c0,0,7.3-5.3,11.6-6.8c4.2-1.6,17.9-1.6,20.5,6.8
	C465.1,178.2,467.8,196.1,448.3,197.1L448.3,197.1z M496.1,239.7c11.6-8.4,24.8,0.5,34.2,0c9.4-0.5,11.5-12.6,15.8-18.9
	c4.2-6.3,22.6-14.7,13.6-23.7c-9-8.9-52.1-15.3-63.1-1.1c-5.6,7.3-23.2,27.4-32.1,31.6c-8.9,4.2-4.2,20.5,1.6,21.6
	C471.9,250.2,484.5,248.1,496.1,239.7L496.1,239.7z M548.8,291.8c-3.2,3.7,1.6,11.6,12.1,11.6c0,7.9,2.1,20.5,12.6,17.9
	s11.6-17.9-1.6-26.3C565.8,291.1,559.4,273.4,548.8,291.8z M866.5,445.8c0,199.6-161.8,361.3-361.3,361.3S143.9,645.4,143.9,445.8
	c0-199.5,161.8-361.3,361.3-361.3S866.5,246.3,866.5,445.8z M505.2,749.3c31.1,0,61-4.7,89.2-13.4c-0.8-2.6-1.8-5.1-3.1-7.4
	c-8.4-15.3-12.1-46.3-3.7-54.2c8.4-7.9,12.1-28.4,5.8-33.7c-6.3-5.2,4.3-14.2,5.3-20c5.8-21.6-5.8-22.6-23.6-27.9
	c-17.9-5.2-35.8,2.1-58.9,2.7c-23.2,0.5-32.7-32.6-35.3-38.4c-8.4-5.3-19.9-13.2-18.4-24.8c1.6-11.6,12.1-21.6,12.6-23.7
	c-2.1-6.8,0-19.4,3.2-23.7c5.2-20,31-33.1,39.5-36.9c3.2-13.7,30-26.8,36.3-24.1c6.3,2.6,12.1,12.6,22.1,0c10-12.7,16.3-9,31.6-9
	c15.2,0,19.9,7.4,24.7,21.6c4.7,14.2,37.9,16.3,38.4,13.2c6.8-22.6,25.8-5.3,29.5-5.3c22.1-1.5,24.7-11,22.1-24.2
	c-2.6-13.1-24.8-6.3-27.4-12.1c-2-4.5-6.8-14.7-9.5-9.5c-2.6,5.3-11.5,16.3-17.3,1.5c-5.8-14.7-22.1-31.5-26.3-28.9
	c-6.3,9-14.3,8.9-17.9,6.3c-14.7-11.1-25.7,0.5-32.1,6.8c-6.3,6.3-15.8,16.7-29.5,20.4c-13.6,3.6-22.6-5.8-24.2-19.5
	c-1.6-13.7,10.6-25.2,22.7-18.9c12.1,6.3,22.6,1.1,17.3-4.2c-5.2-5.3-8.9-20-2.1-22.6c6.8-2.6,11.6,0,23.1-15.8
	c11.6-15.8,24.7-10.5,40-7.9c15.3,2.6,11.1-22.6,10-27.4c-1.1-4.7-19.5-15.3-21.1-11.6c-1.5,3.7,2.6,20.5-6.3,24.8
	c-9,4.2-17.9-10-25.3-18.4c-7.4-8.4,6.8-16.3,8.4-20.5c4.2-15.3,21.6-27.9,37.9-19.4c16.3,8.5,19.4,2.1,18.4-0.6
	c-8.5-10-8.2-28,0-36.8c5.1-5.5,9.9-9,14.4-11.1c-50.2-34.3-109.7-52.7-170.5-52.6c-63.9,0-123.1,19.9-172.1,53.8
	c15.7-7,51.1-10,52-2.7c1,8.4,1,30.5,8.4,26.3c6.3-3.2,13.7-21.1,30.5-8.4c16.8,12.6-3.2,28.4-8.4,36.8c-5.3,8.5-7.4,22.1-25.3,15.8
	c-17.9-6.3-21.1,2.1-22.1,8.4c-1.1,6.3-12.6,11.6-27.3,7.4c-14.8-4.2-38.9,18.9-50.5,30.5c-6.3,6.3-56.2,21.9-48.9-11.1
	c0.4-1.9,0.9-3.3,1.3-5.1c-19.6,33.7-32.4,70.9-37.8,109.6c14.1,4.3,43.4,12.3,48.6,34.9c6.3,9.5,18.9,38.9,31.6,54.7
	c20.3,25.4,6.4,37.7,8.4,57.9c10.5,5.3,26.3,16.8,42.1,25.3c15.8,8.4,27.4,30.5,3.2,38.9c-5.3,4.2,1,24.2-9.5,28.4
	c-8.7,3.5-20.6,17.9-31.6,22.9C352.2,717.7,425.1,749.3,505.2,749.3L505.2,749.3z M808.7,445.8c0-4.6-0.5-9.1-0.7-13.6
	c-7.8-0.4-15.5-1.6-23.1-3.6c-10-2.7-17.4,7.9-12.6,11.6c4.7,3.6,15.8,7.8,16.8,14.7c1.1,6.8-10.5,37.9-16.8,49.4
	c-6.3,11.6-13.6,12.6-17.4,7.4c-3.6-5.3-10.5-31-18.4-45.8c-7.9-14.7-8.9-3.2-6.3,6.3c2.6,9.5,14.7,45.8,18.4,56.3
	c15.3,3.2,17.3,4.7,22.1,9.5c4.7,4.7-1.1,11.1-9.5,23.1c-8.4,12.1-38.4,67.4-40,77.4c-0.7,4.8,0.1,12.2-0.3,20.4
	C777.2,602.3,808.8,525.7,808.7,445.8z"/>
<circle class="st2" cx="504.6" cy="444.5" r="89.6"/>
<g>
	<path class="st0" d="M836.4,301.5c4.3,9.9,8.2,20,11.7,30.3c34.4,14.3,63.4,31,85,49.1c25.9,21.6,39.6,43.6,39.6,63.6
		c0,38.5-48.4,82.2-124.3,114.8c-3.4,10.4-7.3,20.6-11.7,30.6c44-16.7,81.4-37.1,108.9-59.8c33.4-27.5,51.1-57.1,51.1-85.6
		C996.7,392.2,935.6,338,836.4,301.5z"/>
	<path class="st0" d="M77.2,511.3c-26.3-22.5-40.7-46.2-40.7-66.8c0-20,13.2-41.8,38.1-63.1c22.1-18.9,52.3-36.3,88.3-51
		c3.5-10.3,7.4-20.4,11.8-30.2c-47.5,17.1-87.5,38.9-115.7,63c-30.4,26-46.5,54.2-46.5,81.4c0,53.9,63.3,111.1,162.5,148.2
		c-4.4-10-8.4-20.2-12-30.6C128.6,547.5,99.3,530.2,77.2,511.3z"/>
	<path class="st0" d="M805.8,575.4c-79.7,26.4-186.7,40.9-301.2,40.9c-122.2,0-228.4-14.2-307.3-41.2c-11.9-4.1-23.3-8.4-34.2-13.1
		c3.5,10.4,7.5,20.6,12,30.6c4.7,1.8,9.6,3.5,14.5,5.2c81.4,27.8,190.3,42.5,315.1,42.5c117.1,0,226.7-15,308.8-42.2
		c8-2.6,15.8-5.4,23.4-8.3c4.3-10,8.2-20.2,11.7-30.6C835,565.1,820.8,570.5,805.8,575.4z"/>
</g>
<g>
	<path class="st0" d="M348.1,848.5c-32.6,11.5-60.4,12.2-78.2,1.9c-17.3-10-29.7-32.3-35.7-64.6c-5.3-28.4-5.3-63-0.2-101.2
		c-7.1-8.1-13.9-16.5-20.3-25.2c-8.8,49.4-9.9,94.5-3.1,130.8c7.4,39.3,23.7,67.3,47.3,80.9c12.2,7,26.7,10.4,43,10.4
		c45.9,0,105.7-27.1,165.8-76.5c-11-1.2-21.8-2.8-32.5-4.9C404.6,822.4,375.3,838.9,348.1,848.5z"/>
	<path class="st0" d="M662.8,42c17.1-6.3,32.5-9.4,45.7-9.4c11.3,0,21.1,2.3,29.1,6.9c33.5,19.3,47.2,83.7,37.3,166.2
		c7.3,8.1,14.1,16.6,20.6,25.3c7.7-46.9,8.7-89.8,2.8-125.2c-7.1-42.7-24-72.8-48.7-87c-45.5-26.2-123.5,0-205.1,68.3
		c10.9,1.2,21.6,2.8,32.2,4.9C606.7,68.9,636,51.9,662.8,42z"/>
	<path class="st0" d="M238.6,657.3c16.7-88.1,59.7-196.5,117.9-297.3l0,0c57.9-100.4,127.3-188.4,195.5-247.8
		c8.3-7.2,16.5-14,24.8-20.3c-10.6-2.1-21.3-3.8-32.2-4.9c-2.8,2.3-5.6,4.7-8.4,7.1c-70.1,61-141.3,151.2-200.5,253.9
		C275.3,452.6,232.5,560.9,215,652.8c-0.4,2.2-0.8,4.4-1.2,6.6c6.4,8.7,13.2,17.1,20.3,25.2C235.3,675.7,236.8,666.6,238.6,657.3z"
		/>
</g>
<g>
	<path class="st0" d="M776.9,684c4.4,36.6,4,70-1.2,98.2c-6.3,34-19.6,58.4-37.4,68.7c-17.3,10-42.8,9.5-73.7-1.3
		c-27-9.5-56.7-26.5-87-49.7c0,0,0,0,0,0c-10.5,2.1-21.2,3.8-32.1,5c0,0,0,0,0,0c38.2,32,76.5,55.2,111.1,67.4
		c18.6,6.6,36,9.8,51.6,9.8c16,0,30.2-3.5,42.2-10.4c46.4-26.8,64.3-109.6,47.1-213.4C791,667.2,784.1,675.8,776.9,684z"/>
	<path class="st0" d="M234.1,106.8c5.7-33.2,17.9-56.1,35.2-66.1c33.6-19.4,96.4,1,163.2,51.2c10.6-2.2,21.4-3.9,32.4-5.1
		c-37-30.4-74-52.9-107.9-65.5c-40.5-15.1-75-15.6-99.7-1.3c-45.4,26.3-61.7,107-43.2,212c6.4-8.7,13.2-17.1,20.4-25.2
		C229.4,169.1,229.2,135,234.1,106.8z"/>
	<path class="st0" d="M466.2,119.5c62.7,55.7,128.9,141,186.4,240.2c61.2,105.8,102.1,204.9,118.3,286.6c2.5,12.9,4.6,25.5,6,37.7
		c7.2-8.2,14.1-16.8,20.5-25.7c-0.9-5.5-1.9-11.1-3-16.7c-16.7-84.3-58.5-185.9-121-294C614.7,246.4,546.8,159,482.2,101.6
		c-5.8-5.1-11.6-10.1-17.4-14.8c-10.9,1.2-21.7,2.9-32.4,5.1C443.6,100.3,455,109.5,466.2,119.5z"/>
</g>
<path class="st3" d="M504.6,262.4c120.2,0,232,17.3,316.2,46.3c101.5,34.9,163.9,87.9,163.9,135.9c0,50-66.1,106.2-175.1,142.4
	c-82.4,27.3-190.8,41.5-305,41.5c-117,0-227.9-13.4-311.2-41.8c-105.4-36-168.9-93-168.9-142c0-47.6,59.6-100.1,159.6-135
	C268.7,280,383.2,262.4,504.6,262.4z"/>
<path class="st3" d="M346.1,354c60.1-104.2,130.8-192.3,198-250.8c81-70.5,158-98,199.6-74.1c43.3,25,59,110.4,35.8,222.8
	c-17.5,85-59.3,186-116.4,284.9c-58.4,101.3-125.4,190.7-191.7,248.6c-83.9,73.3-165,99.8-207.4,75.4
	c-41.2-23.8-57-101.6-37.2-205.7C243.5,567.1,285.4,459.1,346.1,354z"/>
<path class="st3" d="M346.2,537.1C286,433,244.9,327.7,227.8,240.2c-20.6-105.3-6-185.9,35.5-209.9c43.2-25,125.1,4,210.9,80.2
	c64.9,57.6,131.6,144.3,188.8,243.1C721.6,455,765.5,557.6,782.7,644c21.6,109.3,4.1,192.8-38.3,217.3
	c-41.2,23.8-116.5-1.4-196.8-70.5C479.7,732.4,407,642.2,346.2,537.1z"/>
<path class="st4" d="M448.3,197.1c-19.5,1-16.8-20.5-17.9-27.4c0,0,7.3-5.3,11.6-6.8c4.2-1.6,17.9-1.6,20.5,6.8
	C465.1,178.2,467.8,196.1,448.3,197.1L448.3,197.1z M496.1,239.7c11.6-8.4,24.8,0.5,34.2,0c9.4-0.5,11.5-12.6,15.8-18.9
	c4.2-6.3,22.6-14.7,13.6-23.7c-9-8.9-52.1-15.3-63.1-1.1c-5.6,7.3-23.2,27.4-32.1,31.6c-8.9,4.2-4.2,20.5,1.6,21.6
	C471.9,250.2,484.5,248.1,496.1,239.7L496.1,239.7z M548.8,291.8c-3.2,3.7,1.6,11.6,12.1,11.6c0,7.9,2.1,20.5,12.6,17.9
	s11.6-17.9-1.6-26.3C565.8,291.1,559.4,273.4,548.8,291.8z M866.5,445.8c0,199.6-161.8,361.3-361.3,361.3S143.9,645.4,143.9,445.8
	c0-199.5,161.8-361.3,361.3-361.3S866.5,246.3,866.5,445.8z M505.2,749.3c31.1,0,61-4.7,89.2-13.4c-0.8-2.6-1.8-5.1-3.1-7.4
	c-8.4-15.3-12.1-46.3-3.7-54.2c8.4-7.9,12.1-28.4,5.8-33.7c-6.3-5.2,4.3-14.2,5.3-20c5.8-21.6-5.8-22.6-23.6-27.9
	c-17.9-5.2-35.8,2.1-58.9,2.7c-23.2,0.5-32.7-32.6-35.3-38.4c-8.4-5.3-19.9-13.2-18.4-24.8c1.6-11.6,12.1-21.6,12.6-23.7
	c-2.1-6.8,0-19.4,3.2-23.7c5.2-20,31-33.1,39.5-36.9c3.2-13.7,30-26.8,36.3-24.1c6.3,2.6,12.1,12.6,22.1,0c10-12.7,16.3-9,31.6-9
	c15.2,0,19.9,7.4,24.7,21.6c4.7,14.2,37.9,16.3,38.4,13.2c6.8-22.6,25.8-5.3,29.5-5.3c22.1-1.5,24.7-11,22.1-24.2
	c-2.6-13.1-24.8-6.3-27.4-12.1c-2-4.5-6.8-14.7-9.5-9.5c-2.6,5.3-11.5,16.3-17.3,1.5c-5.8-14.7-22.1-31.5-26.3-28.9
	c-6.3,9-14.3,8.9-17.9,6.3c-14.7-11.1-25.7,0.5-32.1,6.8c-6.3,6.3-15.8,16.7-29.5,20.4c-13.6,3.6-22.6-5.8-24.2-19.5
	c-1.6-13.7,10.6-25.2,22.7-18.9c12.1,6.3,22.6,1.1,17.3-4.2c-5.2-5.3-8.9-20-2.1-22.6c6.8-2.6,11.6,0,23.1-15.8
	c11.6-15.8,24.7-10.5,40-7.9c15.3,2.6,11.1-22.6,10-27.4c-1.1-4.7-19.5-15.3-21.1-11.6c-1.5,3.7,2.6,20.5-6.3,24.8
	c-9,4.2-17.9-10-25.3-18.4c-7.4-8.4,6.8-16.3,8.4-20.5c4.2-15.3,21.6-27.9,37.9-19.4c16.3,8.5,19.4,2.1,18.4-0.6
	c-8.5-10-8.2-28,0-36.8c5.1-5.5,9.9-9,14.4-11.1c-50.2-34.3-109.7-52.7-170.5-52.6c-63.9,0-123.1,19.9-172.1,53.8
	c15.7-7,51.1-10,52-2.7c1,8.4,1,30.5,8.4,26.3c6.3-3.2,13.7-21.1,30.5-8.4c16.8,12.6-3.2,28.4-8.4,36.8c-5.3,8.5-7.4,22.1-25.3,15.8
	c-17.9-6.3-21.1,2.1-22.1,8.4c-1.1,6.3-12.6,11.6-27.3,7.4c-14.8-4.2-38.9,18.9-50.5,30.5c-6.3,6.3-56.2,21.9-48.9-11.1
	c0.4-1.9,0.9-3.3,1.3-5.1c-19.6,33.7-32.4,70.9-37.8,109.6c14.1,4.3,43.4,12.3,48.6,34.9c6.3,9.5,18.9,38.9,31.6,54.7
	c20.3,25.4,6.4,37.7,8.4,57.9c10.5,5.3,26.3,16.8,42.1,25.3c15.8,8.4,27.4,30.5,3.2,38.9c-5.3,4.2,1,24.2-9.5,28.4
	c-8.7,3.5-20.6,17.9-31.6,22.9C352.2,717.7,425.1,749.3,505.2,749.3L505.2,749.3z M808.7,445.8c0-4.6-0.5-9.1-0.7-13.6
	c-7.8-0.4-15.5-1.6-23.1-3.6c-10-2.7-17.4,7.9-12.6,11.6c4.7,3.6,15.8,7.8,16.8,14.7c1.1,6.8-10.5,37.9-16.8,49.4
	c-6.3,11.6-13.6,12.6-17.4,7.4c-3.6-5.3-10.5-31-18.4-45.8c-7.9-14.7-8.9-3.2-6.3,6.3c2.6,9.5,14.7,45.8,18.4,56.3
	c15.3,3.2,17.3,4.7,22.1,9.5c4.7,4.7-1.1,11.1-9.5,23.1c-8.4,12.1-38.4,67.4-40,77.4c-0.7,4.8,0.1,12.2-0.3,20.4
	C777.2,602.3,808.8,525.7,808.7,445.8z"/>
</svg>
