<?xml version="1.0" encoding="utf-8"?>
<!-- Generator: Adobe Illustrator 23.0.1, SVG Export Plug-In . SVG Version: 6.00 Build 0)  -->
<svg version="1.1" id="Layer_2_1_" xmlns="http://www.w3.org/2000/svg" xmlns:xlink="http://www.w3.org/1999/xlink" x="0px" y="0px"
	 viewBox="0 0 1001.1 890.7" style="enable-background:new 0 0 1001.1 890.7;" xml:space="preserve">
<style type="text/css">
	.st0{display:none;fill:#B5B5B5;}
	.st1{fill:#FFFFFF;}
	.st2{opacity:0.4;fill:#3B8FC4;}
	.st3{display:none;}
	.st4{display:inline;fill:#FFFFFF;}
	.st5{display:none;fill:none;stroke:#FFFFFF;stroke-width:48;stroke-miterlimit:10;}
	.st6{display:none;fill:#FFFFFF;}
</style>
<title>Artboard 1</title>
<rect class="st0" width="1001.1" height="890.7"/>
<path class="st1" d="M586.3,786.4c-9.7-7.1-19.6-14.9-29.4-23.4c-65.1-56.1-134.6-143.8-190.7-240.7l0,0
	c-55.9-96.6-95.8-196.5-112.4-281.4c-2.7-13.6-4.7-26.7-6.1-39.4c-14.6,15.1-27.8,31.5-39.6,49.1c17.6,89.6,59.4,194.4,117.7,295.1
	l0,0C384.5,647.2,454.8,736,524,796.2C545.3,794.8,566.2,791.5,586.3,786.4z"/>
<path class="st1" d="M793.2,250.9c-11.8-17.7-25.2-34.3-39.9-49.5c-1.6,15.9-4.2,33-8,51.4c-16.2,78.7-55.5,174.6-110.5,270.1
	c-58.7,101.8-121.4,183.3-181.5,235.8c-12,10.5-24,20-35.9,28.5c20.5,5,41.7,8.2,63.5,9.4c1.1-0.9,2.1-1.8,3.2-2.8
	c63.9-55.8,130-141.4,191.2-247.6c57.5-99.7,98.6-200.5,115.8-283.9C791.8,258.4,792.5,254.6,793.2,250.9z"/>
<path class="st1" d="M185.4,289.8c-9.3,18.7-16.9,38.4-22.7,58.8c10.8-4.7,22.1-9.2,34.1-13.3c81.1-28.3,191.8-44.5,303.9-44.5
	c111.5,0,218,15.5,299.8,43.7c13.5,4.6,26.3,9.6,38.3,15c-5.8-20.5-13.4-40.2-22.7-58.9c-0.2-0.1-0.3-0.1-0.5-0.2
	c-86.6-29.8-198.4-46.2-315-46.2C383.6,244.1,271.9,260.3,185.4,289.8z"/>
<circle class="st2" cx="500.6" cy="445.3" r="333.4"/>
<path d="M445.2,203.5c-19,1-16.4-20-17.4-26.6c0,0,7.1-5.1,11.2-6.6c4.1-1.5,17.4-1.5,20,6.6C461.5,185.1,464.1,202.5,445.2,203.5
	L445.2,203.5z M491.7,244.9c11.2-8.2,24.1,0.5,33.3,0c9.2-0.5,11.2-12.3,15.3-18.4c4.1-6.2,21.9-14.3,13.3-23
	c-8.7-8.7-50.6-14.8-61.4-1c-5.5,7.1-22.5,26.6-31.2,30.7s-4.1,19.9,1.5,21C468.2,255.2,480.4,253.1,491.7,244.9L491.7,244.9z
	 M542.9,295.6c-3.1,3.6,1.6,11.3,11.7,11.3c0,7.7,2.1,19.9,12.3,17.4c10.2-2.6,11.3-17.4-1.5-25.6
	C559.4,294.9,553.2,277.7,542.9,295.6z M851.8,445.3c0,194-157.3,351.2-351.2,351.2S149.3,639.3,149.3,445.3
	c0-194,157.3-351.2,351.2-351.2S851.8,251.3,851.8,445.3z M500.6,740.3c30.2,0,59.3-4.6,86.7-13c-0.7-2.5-1.8-4.9-3-7.2
	c-8.1-14.8-11.8-45-3.6-52.7c8.2-7.7,11.7-27.6,5.6-32.8c-6.1-5.1,4.1-13.8,5.1-19.4c5.7-21-5.6-22-23-27.2
	c-17.4-5.1-34.8,2.1-57.3,2.6c-22.6,0.5-31.8-31.7-34.3-37.3c-8.2-5.1-19.4-12.9-17.8-24.1c1.5-11.3,11.7-21,12.2-23
	c-2-6.7,0-18.9,3.1-23c5.1-19.4,30.1-32.2,38.4-35.8c3.1-13.3,29.2-26.1,35.3-23.5c6.1,2.5,11.8,12.3,21.5,0
	c9.7-12.3,15.8-8.7,30.7-8.7c14.8,0,19.4,7.2,24,21c4.6,13.8,36.9,15.8,37.3,12.8c6.6-22,25.1-5.1,28.7-5.1
	c21.5-1.5,24-10.7,21.5-23.5c-2.6-12.8-24.1-6.1-26.6-11.7c-2-4.4-6.7-14.3-9.2-9.2c-2.5,5.1-11.2,15.8-16.9,1.5
	c-5.6-14.3-21.5-30.7-25.5-28.1c-6.2,8.7-13.9,8.7-17.4,6.1c-14.3-10.8-25,0.5-31.2,6.7c-6.1,6.1-15.4,16.3-28.7,19.9
	c-13.3,3.5-22-5.6-23.5-18.9c-1.5-13.3,10.3-24.5,22.1-18.4c11.8,6.1,21.9,1,16.9-4.1c-5.1-5.1-8.7-19.5-2-22
	c6.6-2.6,11.2,0,22.5-15.4s24-10.2,38.9-7.7c14.8,2.6,10.8-22,9.7-26.6c-1-4.6-18.9-14.8-20.5-11.3c-1.5,3.6,2.6,19.9-6.1,24.1
	c-8.7,4.1-17.4-9.8-24.6-17.9c-7.2-8.2,6.7-15.8,8.2-19.9c4.1-14.8,21-27.1,36.9-18.9s18.9,2,17.9-0.6c-8.2-9.7-8-27.2,0-35.8
	c5-5.3,9.6-8.7,14-10.8c-48.8-33.4-106.6-51.2-165.8-51.2c-62.1,0-119.7,19.4-167.3,52.3c15.3-6.8,49.7-9.7,50.6-2.6
	c1,8.2,1,29.7,8.1,25.6c6.1-3.1,13.3-20.5,29.7-8.2c16.3,12.3-3.1,27.6-8.2,35.8c-5.1,8.2-7.2,21.5-24.6,15.3
	c-17.4-6.1-20.5,2-21.5,8.2c-1,6.1-12.2,11.2-26.6,7.2c-14.3-4.1-37.8,18.4-49.1,29.6c-6.2,6.1-54.6,21.3-47.5-10.8
	c0.4-1.8,0.9-3.2,1.3-5c-19,32.8-31.5,69-36.8,106.5c13.7,4.1,42.2,11.9,47.2,34c6.1,9.2,18.4,37.9,30.7,53.2
	c19.7,24.7,6.2,36.7,8.2,56.3c10.2,5.1,25.5,16.4,40.9,24.6c15.3,8.2,26.6,29.6,3.1,37.8c-5.1,4.1,1,23.5-9.2,27.6
	c-8.5,3.4-20,17.4-30.7,22.3C351.8,709.6,422.6,740.3,500.6,740.3L500.6,740.3z M795.6,445.3c0-4.5-0.5-8.8-0.7-13.2
	c-7.6-0.4-15.1-1.6-22.5-3.5c-9.7-2.6-16.9,7.6-12.3,11.2c4.6,3.5,15.4,7.6,16.4,14.3c1,6.7-10.2,36.8-16.4,48
	c-6.1,11.3-13.3,12.3-16.9,7.2c-3.5-5.1-10.2-30.2-17.9-44.5c-7.7-14.3-8.7-3.1-6.1,6.1c2.6,9.2,14.3,44.5,17.9,54.7
	c14.9,3.1,16.9,4.6,21.5,9.2c4.5,4.6-1,10.8-9.2,22.5c-8.2,11.8-37.3,65.5-38.9,75.2c-0.7,4.7,0.1,11.9-0.3,19.9
	C765,597.4,795.6,522.9,795.6,445.3z"/>
<g>
	<path class="st1" d="M793.1,633.4c-16.5-83.2-57.6-183.2-119-289.4c-57.7-99.5-124.5-185.5-188.2-242.1c-2.7-2.4-5.4-4.8-8.2-7.1
		c-21.5,1.4-42.5,4.7-62.8,9.8c12.8,9.2,26.2,19.9,40,32.2c60.1,53.3,123.6,135.2,178.8,230.6c58.9,101.8,98.2,196.9,113.6,275.1
		c3.2,16,5.4,31.4,6.9,46.3c14.8-15.4,28.1-32.1,39.9-50C793.8,637,793.5,635.2,793.1,633.4z"/>
	<path class="st1" d="M754.2,688.8c2.9,30.2,2.2,57.9-2.2,81.4c-5.5,29.6-16.4,50.5-30.7,58.8c-13.6,7.9-35.6,7.1-62-2.2
		c-22.7-8-47.5-21.7-73-40.4c-20.2,5.1-41,8.4-62.4,9.8c0.8,0.7,1.7,1.5,2.5,2.2c40.1,34.5,80.7,59.6,117.4,72.5
		c19.4,6.8,37.5,10.2,54,10.2c17.6,0,33.4-3.9,46.8-11.6c26.7-15.4,45.1-46.8,53.2-90.7c7.3-39.5,6-87.8-3.8-139.9
		C782.3,656.7,769,673.4,754.2,688.8z"/>
	<path class="st1" d="M208.1,250.6c11.7-17.5,25-34,39.6-49.1c-3.5-31.5-3.3-60,0.8-83.8c4.9-28.4,15-48.3,28.5-56.2
		c22.7-13.1,73.3-3.5,137.9,43c20.3-5.1,41.3-8.4,62.8-9.8c-40-34.2-80.3-59.4-117.2-73.2c-42.8-16-79.7-16.1-106.9-0.4
		c-26.1,15.1-43.8,45.8-51.2,88.6c-6.7,39-4.8,87.4,5.5,140.1C208,250.1,208.1,250.4,208.1,250.6z"/>
</g>
<g>
	<path class="st1" d="M248.3,690.2c1.3-11.8,3.1-23.9,5.5-36.5c16-84.4,57.3-188.4,113.3-285.4l0,0c55.7-96.5,122.3-181,187.6-237.9
		c10.8-9.4,21.5-17.9,32.1-25.7c-20.1-5.1-41-8.4-62.3-9.8c-0.1,0.1-0.3,0.2-0.4,0.4C454.9,155.4,384.8,244.1,326.6,345
		c-58.5,101.4-100.3,206.4-117.9,296.3C220.4,658.8,233.7,675.1,248.3,690.2z"/>
	<path class="st1" d="M586.7,104.8c25.2-18.4,49.6-32.2,72-40.4c15.2-5.6,29-8.4,40.5-8.4c8.9,0,16.5,1.7,22.4,5.1
		c22.6,13.1,39.6,61.4,31.6,140.3c14.7,15.3,28.1,31.8,39.9,49.5c9.6-51.5,11.2-98.8,4.8-137.5c-7.5-45-25.9-77.1-53-92.8
		c-26.1-15-61.5-15-102.3-0.1c-37,13.6-77.8,39.3-118.2,74.4C545.8,96.3,566.6,99.7,586.7,104.8z"/>
	<path class="st1" d="M417.4,787.1c-25,17.9-49.6,31.2-72.4,39.3c-28.4,10-52,11-66.3,2.8c-13.6-7.8-23.9-27.3-29-54.8
		c-4.4-23.8-4.9-52.4-1.4-84.2c-14.6-15.1-27.9-31.4-39.6-48.9c-0.2,1.2-0.5,2.5-0.7,3.7c-9.9,52-11.3,99.7-4.2,137.9
		c7.8,41.7,25.6,71.7,51.6,86.6c13.6,7.8,29.7,11.8,47.7,11.8c17.4,0,36.7-3.6,57.4-10.9c38.2-13.5,79.8-39,120.3-74
		C459.1,795.2,437.9,792,417.4,787.1z"/>
</g>
<g>
	<path class="st1" d="M163,543.6c-28-12.7-51.9-27.3-70.3-43.1c-22.9-19.6-35.5-39.5-35.5-56c0-15.7,11.7-34.3,33-52.5
		c18.5-15.8,43.2-30.5,72.5-43.4c5.8-20.4,13.5-40.1,22.7-58.8c-1.4,0.5-2.7,0.9-4.1,1.4c-49.9,17.4-92,40-121.6,65.3
		c-32.2,27.6-49.3,58-49.3,88c0,30.8,17.9,62.4,51.8,91.5c30.8,26.4,73.6,49.5,124,67.2C176.9,584.2,169,564.3,163,543.6z"/>
	<path class="st1" d="M939.6,355.7c-30.3-25.3-73-47.8-123.5-65.3c9.2,18.8,16.9,38.5,22.7,58.9c28.5,12.6,52.7,26.9,71,42.2
		c22.1,18.4,34.3,37.2,34.3,52.9c0,16.7-13.1,36.7-36.9,56.2c-18,14.8-41.2,28.7-68.4,41c-5.9,20.6-13.5,40.5-22.9,59.4
		c49.1-17.4,90.8-39.5,120.9-64.3c35.3-29,53.9-60.9,53.9-92.3C990.6,414.3,973,383.6,939.6,355.7z"/>
	<path class="st1" d="M789.7,560.7c-76.3,25.3-179,39.2-289.2,39.2c-115.8,0-220.6-14-295-39.4c-15-5.1-29.3-10.8-42.6-16.8
		c6,20.7,13.9,40.6,23.4,59.5c1.4,0.5,2.7,1,4.1,1.4c80.3,27.4,187.5,41.9,310,41.9c115,0,222.9-14.8,303.8-41.6
		c3.8-1.3,7.6-2.6,11.4-3.9c9.3-18.9,17-38.8,22.9-59.4C823.5,548.5,807.2,554.9,789.7,560.7z"/>
</g>
<g id="ring-mid" class="st3">
	<path class="st4" d="M500.4,652.4c-126.1,0-236.4-14.9-318.9-43.1c-53.7-18.3-99.3-42.8-131.8-70.6c-34.9-29.9-53.3-62.4-53.3-94.1
		c0-30.8,17.5-62.1,50.7-90.5c30.4-26,73.7-49.3,125-67.2c89.6-31.3,206.2-48.5,328.4-48.5c119.9,0,235,16.9,324,47.6
		c52.2,18,96.3,41.3,127.6,67.3c34.3,28.7,52.5,60.2,52.5,91.2c0,32.2-19.2,65.1-55.4,94.9c-33.4,27.5-80.5,51.8-136.1,70.2
		C729.7,637.2,618.7,652.4,500.4,652.4z M500.4,286.4c-115.3,0-229.2,16.7-312.6,45.8c-45.8,16-83.7,36.1-109.7,58.3
		c-21.9,18.7-33.9,37.9-33.9,54c0,17,13,37.5,36.5,57.6c27.9,23.9,68.1,45.2,116.1,61.6c76.5,26.2,184.3,40.6,303.4,40.6
		c113.3,0,218.9-14.3,297.5-40.3c50.1-16.6,91.8-37.9,120.7-61.7c24.5-20.1,37.9-40.7,37.9-57.9c0-16.1-12.5-35.4-35.3-54.4
		c-26.8-22.4-65.7-42.7-112.4-58.8C724.6,302.3,615.1,286.4,500.4,286.4z"/>
</g>
<path id="ring-left" class="st5" d="M342.2,354.2c60.1-104.2,130.8-192.3,198-250.8c81-70.5,158-98,199.6-74.1
	c43.3,25,59,110.4,35.8,222.8c-17.5,85-59.3,186-116.4,285c-58.4,101.3-125.4,190.7-191.7,248.6c-83.9,73.3-165,99.8-207.4,75.4
	c-41.2-23.8-57-101.6-37.2-205.7C239.7,567.3,281.6,459.4,342.2,354.2z"/>
<path id="ring-right" class="st5" d="M341.3,536.6C281.1,432.5,240.1,327.2,223,239.8c-20.6-105.3-6-185.9,35.5-209.9
	c43.2-25,125.1,4,210.9,80.2c64.9,57.6,131.6,144.3,188.8,243.1c58.6,101.3,102.5,203.9,119.7,290.3
	c21.6,109.3,4.1,192.8-38.3,217.3c-41.2,23.8-116.5-1.4-196.8-70.5C474.8,731.9,402.2,641.7,341.3,536.6z"/>
<circle class="st6" cx="500.4" cy="445.6" r="361.5"/>
</svg>
